# Blender 4.0.2
# www.blender.org
mtllib target_dummies.mtl
o cube
v 0.343750 0.062500 0.343750
v 0.343750 0.062500 -0.343750
v 0.343750 0.000000 0.343750
v 0.343750 -0.000000 -0.343750
v -0.343750 0.062500 -0.343750
v -0.343750 0.062500 0.343750
v -0.343750 -0.000000 -0.343750
v -0.343750 0.000000 0.343750
vn -0.0000 -0.0000 -1.0000
vn 1.0000 -0.0000 -0.0000
vn -0.0000 -0.0000 1.0000
vn -1.0000 -0.0000 -0.0000
vn -0.0000 1.0000 -0.0000
vn -0.0000 -1.0000 -0.0000
vt 0.125000 0.757812
vt 0.210938 0.757812
vt 0.210938 0.765625
vt 0.125000 0.765625
vt 0.125000 0.750000
vt 0.210938 0.750000
vt 0.250000 0.992188
vt 0.335938 0.992188
vt 0.335938 1.000000
vt 0.250000 1.000000
vt 0.250000 0.984375
vt 0.335938 0.984375
vt 0.140625 0.851562
vt 0.054688 0.851562
vt 0.054688 0.765625
vt 0.140625 0.765625
vt 0.226562 0.765625
vt 0.226562 0.851562
s 0
usemtl m_255e1967-71fb-ae9d-4d23-e5e35558e028
f 4/1/1 7/2/1 5/3/1 2/4/1
f 3/5/2 4/6/2 2/2/2 1/1/2
f 8/7/3 3/8/3 1/9/3 6/10/3
f 7/11/4 8/12/4 6/8/4 5/7/4
f 6/13/5 1/14/5 2/15/5 5/16/5
f 7/17/6 4/16/6 3/13/6 8/18/6
o cube.001
v 0.093750 2.250000 0.093750
v 0.093750 2.250000 -0.093750
v 0.093750 0.062500 0.093750
v 0.093750 0.062500 -0.093750
v -0.093750 2.250000 -0.093750
v -0.093750 2.250000 0.093750
v -0.093750 0.062500 -0.093750
v -0.093750 0.062500 0.093750
vn -0.0000 -0.0000 -1.0000
vn 1.0000 -0.0000 -0.0000
vn -0.0000 -0.0000 1.0000
vn -1.0000 -0.0000 -0.0000
vn -0.0000 1.0000 -0.0000
vn -0.0000 -1.0000 -0.0000
vt 0.226562 0.726562
vt 0.250000 0.726562
vt 0.250000 1.000000
vt 0.226562 1.000000
vt 0.054688 0.492188
vt 0.078125 0.492188
vt 0.078125 0.765625
vt 0.054688 0.765625
vt 0.101562 0.492188
vt 0.101562 0.765625
vt 0.125000 0.492188
vt 0.125000 0.765625
vt 0.187500 0.890625
vt 0.164062 0.890625
vt 0.164062 0.867188
vt 0.187500 0.867188
vt 0.210938 0.867188
vt 0.210938 0.890625
s 0
usemtl m_255e1967-71fb-ae9d-4d23-e5e35558e028
f 12/19/7 15/20/7 13/21/7 10/22/7
f 11/23/8 12/24/8 10/25/8 9/26/8
f 16/24/9 11/27/9 9/28/9 14/25/9
f 15/27/10 16/29/10 14/30/10 13/28/10
f 14/31/11 9/32/11 10/33/11 13/34/11
f 15/35/12 12/34/12 11/31/12 16/36/12
o cube.002
v 0.218750 2.000000 0.218750
v 0.218750 2.000000 -0.218750
v 0.218750 0.812500 0.218750
v 0.218750 0.812500 -0.218750
v -0.218750 2.000000 -0.218750
v -0.218750 2.000000 0.218750
v -0.218750 0.812500 -0.218750
v -0.218750 0.812500 0.218750
vn -0.0000 -0.0000 -1.0000
vn 1.0000 -0.0000 -0.0000
vn -0.0000 -0.0000 1.0000
vn -1.0000 -0.0000 -0.0000
vn -0.0000 1.0000 -0.0000
vn -0.0000 -1.0000 -0.0000
vt 0.000000 0.851562
vt 0.054688 0.851562
vt 0.054688 1.000000
vt 0.000000 1.000000
vt 0.109375 0.851562
vt 0.109375 1.000000
vt 0.164062 0.851562
vt 0.164062 1.000000
vt 0.000000 0.703125
vt 0.054688 0.703125
vt 0.218750 1.000000
vt 0.164062 0.945312
vt 0.218750 0.945312
vt 0.218750 0.890625
vt 0.164062 0.890625
s 0
usemtl m_255e1967-71fb-ae9d-4d23-e5e35558e028
f 20/37/13 23/38/13 21/39/13 18/40/13
f 19/38/14 20/41/14 18/42/14 17/39/14
f 24/41/15 19/43/15 17/44/15 22/42/15
f 23/45/16 24/46/16 22/38/16 21/37/16
f 22/47/17 17/44/17 18/48/17 21/49/17
f 23/50/18 20/51/18 19/48/18 24/49/18
